<svg xmlns="http://www.w3.org/2000/svg" viewBox="0 0 138.68 23.96"><defs><style>.cls-1{fill:#fff;}.cls-2{fill:#40dddf;}</style></defs><title>main-logo-2</title><g id="Layer_2" data-name="Layer 2"><g id="Layer_1-2" data-name="Layer 1"><path class="cls-1" d="M65.74,19.26V7a.18.18,0,0,0-.34-.09l-6.58,9.22a.63.63,0,0,1-.54.31h-.09a.65.65,0,0,1-.55-.31L51.07,6.94a.19.19,0,0,0-.35.09V19.26a.63.63,0,0,1-.63.63h0a.63.63,0,0,1-.63-.63V4.73a.82.82,0,0,1,.82-.82h0a.84.84,0,0,1,.71.41l6.73,9.51a.63.63,0,0,0,1.09,0L65.5,4.32a.84.84,0,0,1,.71-.41h0a.83.83,0,0,1,.83.82V19.26a.63.63,0,0,1-.63.63h0A.63.63,0,0,1,65.74,19.26Z"/><path class="cls-1" d="M73.43,19.89a.61.61,0,0,1-.61-.61V4.5a.58.58,0,0,1,.58-.59h.13a.58.58,0,0,1,.58.59V18.73H84.29a.58.58,0,0,1,.58.58h0a.58.58,0,0,1-.58.58Z" /><path class="cls-1" d="M121.91,15.79a3.59,3.59,0,0,1-.38,1.63,4.07,4.07,0,0,1-1,1.3,4.81,4.81,0,0,1-1.55.88,5.58,5.58,0,0,1-1.88.31h-7.54a.84.84,0,0,1-.88-.77V4.8a.84.84,0,0,1,.88-.78H117a4,4,0,0,1,1.7.36,4.17,4.17,0,0,1,2.12,2.23,4,4,0,0,1,.29,1.46,3.84,3.84,0,0,1-.69,2.22,4,4,0,0,1-1.9,1.48A4.47,4.47,0,0,1,121,13.28,3.85,3.85,0,0,1,121.91,15.79Zm-12-10.47v5.87a.15.15,0,0,0,.16.14h6.43A4.27,4.27,0,0,0,118,11a3.56,3.56,0,0,0,1.06-.7,2.66,2.66,0,0,0,.61-.9,3,3,0,0,0,.25-1.19A3.12,3.12,0,0,0,119.64,7,3.39,3.39,0,0,0,119,6a3.08,3.08,0,0,0-1-.69,3.22,3.22,0,0,0-1.3-.14H110.1A.16.16,0,0,0,109.94,5.32Zm10.68,10.32a3,3,0,0,0-.26-1.22,2.65,2.65,0,0,0-.6-.94,2.76,2.76,0,0,0-1.08-.73,6.25,6.25,0,0,0-1.44-.26H110.1a.15.15,0,0,0-.16.14v5.94a.15.15,0,0,0,.16.14h7a4.84,4.84,0,0,0,1.63-.26,2.85,2.85,0,0,0,1-.67,3.19,3.19,0,0,0,.67-.93A2.89,2.89,0,0,0,120.62,15.64Z"/><path class="cls-1" d="M137.44,6.14a.63.63,0,0,1-.87.1A8.56,8.56,0,0,0,128.2,6a2.66,2.66,0,0,0-1.14,2.18,2.23,2.23,0,0,0,1.26,2.14A7.39,7.39,0,0,0,130,11c.66.17,1.45.34,2.37.5s1.86.38,2.64.6a7.94,7.94,0,0,1,2,.81,3.7,3.7,0,0,1,1.27,1.21,3.37,3.37,0,0,1,.44,1.77,3.51,3.51,0,0,1-.47,1.83A3.76,3.76,0,0,1,136.89,19a6.67,6.67,0,0,1-2,.8,11.75,11.75,0,0,1-2.62.26A11.05,11.05,0,0,1,125.49,18a.47.47,0,0,1-.1-.67l0,0a.63.63,0,0,1,.86-.11,8.17,8.17,0,0,0,2.26,1.08,11.41,11.41,0,0,0,3.84.47,7.14,7.14,0,0,0,3.7-.75,2.16,2.16,0,0,0,1.24-2,2.46,2.46,0,0,0-.34-1.33,2.92,2.92,0,0,0-1.06-1,7.51,7.51,0,0,0-1.76-.69c-.7-.2-1.52-.38-2.47-.56s-1.82-.37-2.55-.57a7.58,7.58,0,0,1-1.87-.76A3.37,3.37,0,0,1,126.12,10a3.24,3.24,0,0,1-.38-1.64,3.85,3.85,0,0,1,.47-1.9,4.25,4.25,0,0,1,1.31-1.4,6.3,6.3,0,0,1,2-.86,10.92,10.92,0,0,1,2.59-.29,9.94,9.94,0,0,1,3.12.46,7.35,7.35,0,0,1,2.11,1.11.46.46,0,0,1,.1.66Z"/><path class="cls-1" d="M103.93,19,96.81,4.3a.63.63,0,0,0-.58-.39H96a.63.63,0,0,0-.58.39L88.29,19a.63.63,0,0,0,.58.87.64.64,0,0,0,.58-.38L95.74,6.35a.4.4,0,0,1,.73,0l6.28,13.16a.61.61,0,0,0,.58.38h0A.63.63,0,0,0,103.93,19Z"/><circle class="cls-2" cx="96.11" cy="15.6" r="1.84"/><path class="cls-2" d="M2.07,24A2.08,2.08,0,0,1,.61,20.42L20.42.61a2.07,2.07,0,0,1,2.93,2.93L3.54,23.35A2.09,2.09,0,0,1,2.07,24Z"/><path class="cls-2" d="M16.18,24a2.09,2.09,0,0,1-1.47-.61,2.07,2.07,0,0,1,0-2.93L34.52.61A2.06,2.06,0,0,1,36.78.16a2.08,2.08,0,0,1,1.28,1.91V21.88a2.08,2.08,0,1,1-4.15,0V7.08L17.64,23.35A2.07,2.07,0,0,1,16.18,24Z"/></g></g></svg>
