<svg xmlns="http://www.w3.org/2000/svg" xmlns:xlink="http://www.w3.org/1999/xlink" viewBox="0 0 133.97 23.14"><defs><style>.cls-1{fill:#57657a;}.cls-2{fill:url(#linear-gradient);}.cls-3{fill:url(#linear-gradient-2);}.cls-4{fill:url(#linear-gradient-3);}</style><linearGradient id="linear-gradient" x1="-95.72" y1="20.97" x2="-95.72" y2="30.6" gradientTransform="translate(188.56 -10.39)" gradientUnits="userSpaceOnUse"><stop offset="0" stop-color="#43d365"/><stop offset="0.31" stop-color="#3dd8b7"/><stop offset="0.68" stop-color="#27a7ff"/><stop offset="1" stop-color="#5668ff"/></linearGradient><linearGradient id="linear-gradient-2" x1="-176.99" y1="-10.07" x2="-176.99" y2="40.81" xlink:href="#linear-gradient"/><linearGradient id="linear-gradient-3" x1="-163.37" y1="-10.07" x2="-163.37" y2="40.81" xlink:href="#linear-gradient"/></defs><title>mainLogoColor</title><g id="Layer_2" data-name="Layer 2"><g id="Layer_1-2" data-name="Layer 1"><path class="cls-1" d="M63.51,18.61V6.79a.18.18,0,0,0-.33-.09l-6.36,8.91a.6.6,0,0,1-.52.3h-.09a.62.62,0,0,1-.52-.3L49.34,6.7a.18.18,0,0,0-.34.09V18.61a.61.61,0,0,1-.61.61h0a.61.61,0,0,1-.61-.61v-14a.79.79,0,0,1,.8-.79h0a.79.79,0,0,1,.68.39l6.5,9.2a.61.61,0,0,0,1.05,0l6.5-9.2A.79.79,0,0,1,64,3.78h0a.79.79,0,0,1,.79.79v14a.61.61,0,0,1-.61.61h0A.61.61,0,0,1,63.51,18.61Z"/><path class="cls-1" d="M70.94,19.22a.59.59,0,0,1-.59-.59V4.34a.56.56,0,0,1,.56-.56H71a.56.56,0,0,1,.56.56V18.09h9.83a.56.56,0,0,1,.56.56h0a.56.56,0,0,1-.56.57Z"/><path class="cls-1" d="M117.77,15.26a3.44,3.44,0,0,1-.36,1.56,4,4,0,0,1-1,1.27,4.62,4.62,0,0,1-1.49.84,5.51,5.51,0,0,1-1.82.3H105.8a.8.8,0,0,1-.84-.74V4.64a.8.8,0,0,1,.84-.75h7.27a3.82,3.82,0,0,1,1.64.34,4,4,0,0,1,1.25.9,4.23,4.23,0,0,1,.8,1.25A3.94,3.94,0,0,1,117,7.8a3.73,3.73,0,0,1-.66,2.14,3.88,3.88,0,0,1-1.84,1.43,4.3,4.3,0,0,1,2.36,1.46A3.73,3.73,0,0,1,117.77,15.26ZM106.21,5.14v5.67a.15.15,0,0,0,.15.14h6.22a4.56,4.56,0,0,0,1.38-.3,3.43,3.43,0,0,0,1-.68,2.63,2.63,0,0,0,.59-.87,3,3,0,0,0,0-2.33,3.34,3.34,0,0,0-.64-1,3.06,3.06,0,0,0-1-.67A3.15,3.15,0,0,0,112.72,5h-6.36A.15.15,0,0,0,106.21,5.14Zm10.31,10a3,3,0,0,0-.24-1.18,2.47,2.47,0,0,0-.59-.91,2.59,2.59,0,0,0-1-.7,5.82,5.82,0,0,0-1.39-.26h-6.9a.15.15,0,0,0-.15.14v5.74a.15.15,0,0,0,.15.14h6.73a4.74,4.74,0,0,0,1.57-.26,2.64,2.64,0,0,0,1-.65,2.74,2.74,0,0,0,.64-.9A2.63,2.63,0,0,0,116.52,15.11Z"/><path class="cls-1" d="M132.78,5.93a.6.6,0,0,1-.84.1,8.3,8.3,0,0,0-8.09-.21,2.58,2.58,0,0,0-1.1,2.11A2.43,2.43,0,0,0,123,9.16,2.34,2.34,0,0,0,124,10a7.11,7.11,0,0,0,1.6.59c.64.16,1.4.33,2.29.48s1.79.37,2.55.58a7.76,7.76,0,0,1,1.92.79,3.41,3.41,0,0,1,1.22,1.16A3.15,3.15,0,0,1,134,15.3a3.38,3.38,0,0,1-.45,1.77,3.76,3.76,0,0,1-1.27,1.27,6.68,6.68,0,0,1-2,.77,11.7,11.7,0,0,1-2.54.25,10.64,10.64,0,0,1-6.52-2,.46.46,0,0,1-.1-.65l0,0a.61.61,0,0,1,.84-.1,8,8,0,0,0,2.18,1,11.14,11.14,0,0,0,3.71.46,6.89,6.89,0,0,0,3.57-.73,2.1,2.1,0,0,0,1.2-1.92,2.43,2.43,0,0,0-.33-1.29,2.78,2.78,0,0,0-1-.91,7.17,7.17,0,0,0-1.7-.67c-.68-.19-1.48-.37-2.39-.54s-1.75-.36-2.46-.56a7.18,7.18,0,0,1-1.8-.73,3.17,3.17,0,0,1-1.11-1.07,3.13,3.13,0,0,1-.36-1.58,3.72,3.72,0,0,1,.45-1.84,4,4,0,0,1,1.26-1.35,6.14,6.14,0,0,1,1.94-.83,10.17,10.17,0,0,1,2.5-.28,9.63,9.63,0,0,1,3,.44,7.36,7.36,0,0,1,2,1.07.45.45,0,0,1,.1.64Z"/><path class="cls-1" d="M100.4,18.37,93.52,4.15A.62.62,0,0,0,93,3.78h-.22a.6.6,0,0,0-.56.37L85.29,18.37a.61.61,0,0,0,.56.85.6.6,0,0,0,.56-.37L92.49,6.13a.39.39,0,0,1,.71,0l6.06,12.72a.61.61,0,0,0,.56.37h0A.61.61,0,0,0,100.4,18.37Z"/><circle class="cls-2" cx="92.85" cy="15.07" r="1.78"/><path class="cls-3" d="M2,23.14A2,2,0,0,1,.59,19.72L19.72.59a2,2,0,1,1,2.84,2.83L3.42,22.56A2,2,0,0,1,2,23.14Z"/><path class="cls-4" d="M15.63,23.14a2,2,0,0,1-1.42-.58,2,2,0,0,1,0-2.84L33.35.59A2,2,0,0,1,36.77,2V21.14a2,2,0,0,1-4,0V6.84L17,22.56A2,2,0,0,1,15.63,23.14Z"/></g></g></svg>